M48
; DRILL file {KiCad 8.0.5} date 2024-10-01T09:58:41-0500
; FORMAT={-:-/ absolute / inch / decimal}
; #@! TF.CreationDate,2024-10-01T09:58:41-05:00
; #@! TF.GenerationSoftware,Kicad,Pcbnew,8.0.5
; #@! TF.FileFunction,Plated,1,2,PTH
FMAT,2
INCH
; #@! TA.AperFunction,Plated,PTH,ViaDrill
T1C0.0315
; #@! TA.AperFunction,Plated,PTH,ComponentDrill
T2C0.0315
; #@! TA.AperFunction,Plated,PTH,ComponentDrill
T3C0.0433
; #@! TA.AperFunction,Plated,PTH,ComponentDrill
T4C0.0472
%
G90
G05
T1
X3.6909Y-3.2579
X4.124Y-3.248
X4.1732Y-3.75
X4.2126Y-3.2382
X4.5177Y-3.7402
X4.5768Y-1.3189
X4.5768Y-1.5551
X4.7146Y-3.2972
X4.7244Y-3.2185
X4.7343Y-3.6909
X4.7441Y-3.7795
X5.1575Y-3.2972
X5.2264Y-3.6516
X5.251Y-3.7746
X5.2657Y-3.2382
X5.7185Y-3.2579
X5.7677Y-3.75
X5.8071Y-3.248
X5.9646Y-3.75
X6.1122Y-3.75
X6.2272Y-1.5681
X6.2303Y-1.3189
X6.2303Y-3.248
X6.3386Y-3.6713
X6.3386Y-3.75
X6.4567Y-3.3661
X6.939Y-3.1299
X6.9488Y-3.9764
X6.9587Y-3.2382
X6.9587Y-3.3661
X6.9587Y-3.5728
X6.9685Y-3.6614
X6.9685Y-3.7421
X7.1063Y-3.9567
X7.4562Y-3.7441
X7.5492Y-3.2618
X7.6378Y-3.7402
X7.6772Y-3.2677
X7.7337Y-3.7495
X7.8445Y-1.3189
X7.8445Y-1.5354
X8.0807Y-3.2579
T2
X3.7191Y-1.5669
X3.7191Y-1.8819
X3.7222Y-1.7264
X3.7222Y-2.0394
X3.7222Y-2.1969
X3.7222Y-2.3642
X3.7222Y-2.5236
X3.9063Y-2.8319
X3.9063Y-3.1319
X3.9063Y-3.3583
X3.9063Y-3.6583
X3.9142Y-5.0118
X3.9567Y-3.8504
X3.9567Y-4.2504
X4.0063Y-2.8319
X4.0063Y-3.1319
X4.0063Y-3.3583
X4.0063Y-3.6583
X4.0406Y-4.4311
X4.0406Y-4.7311
X4.1063Y-2.8319
X4.1063Y-3.1319
X4.1063Y-3.3583
X4.1063Y-3.6583
X4.1191Y-1.5669
X4.1191Y-1.8819
X4.1222Y-1.7264
X4.1222Y-2.0394
X4.1222Y-2.1969
X4.1222Y-2.3642
X4.1222Y-2.5236
X4.1406Y-4.4311
X4.1406Y-4.7311
X4.1732Y-3.8504
X4.1732Y-4.2504
X4.2063Y-2.8319
X4.2063Y-3.1319
X4.2063Y-3.3583
X4.2063Y-3.6583
X4.2406Y-4.4311
X4.2406Y-4.7311
X4.3063Y-2.8319
X4.3063Y-3.1319
X4.3063Y-3.3583
X4.3063Y-3.6583
X4.3142Y-5.0118
X4.3406Y-4.4311
X4.3406Y-4.7311
X4.3504Y-3.8504
X4.3504Y-4.2504
X4.3719Y-1.7591
X4.3719Y-2.3591
X4.4063Y-2.8319
X4.4063Y-3.1319
X4.4063Y-3.3583
X4.4063Y-3.6583
X4.4719Y-1.7591
X4.4719Y-2.3591
X4.5063Y-2.8319
X4.5063Y-3.1319
X4.5063Y-3.3583
X4.5063Y-3.6583
X4.5079Y-3.8504
X4.5079Y-4.2504
X4.5602Y-5.002
X4.5719Y-1.7591
X4.5719Y-2.3591
X4.6063Y-2.8319
X4.6063Y-3.1319
X4.6063Y-3.3583
X4.6063Y-3.6583
X4.6719Y-1.7591
X4.6719Y-2.3591
X4.7571Y-5.2677
X4.7571Y-5.5677
X4.7719Y-1.7591
X4.7719Y-2.3591
X4.9602Y-5.002
X5.2134Y-5.0118
X5.3874Y-1.5768
X5.3874Y-1.7362
X5.3874Y-1.8917
X5.3874Y-2.0394
X5.3874Y-2.1969
X5.3874Y-2.3543
X5.3874Y-2.5118
X5.4004Y-5.2677
X5.4004Y-5.5677
X5.5167Y-2.8437
X5.5167Y-3.1437
X5.5205Y-3.3583
X5.5205Y-3.6583
X5.6134Y-5.0118
X5.6167Y-2.8437
X5.6167Y-3.1437
X5.6201Y-3.8504
X5.6201Y-4.2504
X5.6205Y-3.3583
X5.6205Y-3.6583
X5.6843Y-4.4311
X5.6843Y-4.7311
X5.7167Y-2.8437
X5.7167Y-3.1437
X5.7205Y-3.3583
X5.7205Y-3.6583
X5.7843Y-4.4311
X5.7843Y-4.7311
X5.7874Y-1.5768
X5.7874Y-1.7362
X5.7874Y-1.8917
X5.7874Y-2.0394
X5.7874Y-2.1969
X5.7874Y-2.3543
X5.7874Y-2.5118
X5.7972Y-3.8504
X5.7972Y-4.2504
X5.8167Y-2.8437
X5.8167Y-3.1437
X5.8205Y-3.3583
X5.8205Y-3.6583
X5.8843Y-4.4311
X5.8843Y-4.7311
X5.9167Y-2.8437
X5.9167Y-3.1437
X5.9205Y-3.3583
X5.9205Y-3.6583
X5.9843Y-4.4311
X5.9843Y-4.7311
X5.9941Y-3.8504
X5.9941Y-4.2504
X6.0167Y-2.8437
X6.0167Y-3.1437
X6.0205Y-3.3583
X6.0205Y-3.6583
X6.0272Y-1.7638
X6.0272Y-2.3638
X6.1167Y-2.8437
X6.1167Y-3.1437
X6.1205Y-3.3583
X6.1205Y-3.6583
X6.1272Y-1.7638
X6.1272Y-2.3638
X6.1614Y-5.0789
X6.1614Y-5.1577
X6.1713Y-5.3366
X6.1713Y-5.4154
X6.1811Y-3.8441
X6.1811Y-4.2441
X6.2167Y-2.8437
X6.2167Y-3.1437
X6.2205Y-3.3583
X6.2205Y-3.6583
X6.2272Y-1.7638
X6.2272Y-2.3638
X6.3272Y-1.7638
X6.3272Y-2.3638
X6.4272Y-1.7638
X6.4272Y-2.3638
X6.6114Y-5.1083
X6.6114Y-5.4083
X6.7114Y-5.1083
X6.7114Y-5.4083
X6.8114Y-5.1083
X6.8114Y-5.4083
X6.9114Y-5.1083
X6.9114Y-5.4083
X7.0114Y-1.5276
X7.0114Y-1.687
X7.0114Y-1.8524
X7.0114Y-2.0177
X7.0114Y-2.1772
X7.0114Y-2.3287
X7.0114Y-2.4862
X7.1969Y-2.8366
X7.1969Y-3.1366
X7.1969Y-3.3634
X7.1969Y-3.6634
X7.2539Y-5.061
X7.2539Y-5.461
X7.2933Y-3.8504
X7.2933Y-4.2504
X7.2969Y-2.8366
X7.2969Y-3.1366
X7.2969Y-3.3634
X7.2969Y-3.6634
X7.3852Y-4.4262
X7.3852Y-4.7262
X7.3969Y-2.8366
X7.3969Y-3.1366
X7.3969Y-3.3634
X7.3969Y-3.6634
X7.4114Y-1.5276
X7.4114Y-1.687
X7.4114Y-1.8524
X7.4114Y-2.0177
X7.4114Y-2.1772
X7.4114Y-2.3287
X7.4114Y-2.4862
X7.4409Y-5.061
X7.4409Y-5.461
X7.4705Y-3.8504
X7.4705Y-4.2504
X7.4852Y-4.4262
X7.4852Y-4.7262
X7.4969Y-2.8366
X7.4969Y-3.1366
X7.4969Y-3.3634
X7.4969Y-3.6634
X7.5852Y-4.4262
X7.5852Y-4.7262
X7.5969Y-2.8366
X7.5969Y-3.1366
X7.5969Y-3.3634
X7.5969Y-3.6634
X7.6378Y-3.8504
X7.6378Y-4.2504
X7.6445Y-1.7295
X7.6445Y-2.3295
X7.6852Y-4.4262
X7.6852Y-4.7262
X7.6969Y-2.8366
X7.6969Y-3.1366
X7.6969Y-3.3634
X7.6969Y-3.6634
X7.7445Y-1.7295
X7.7445Y-2.3295
X7.7969Y-2.8366
X7.7969Y-3.1366
X7.7969Y-3.3634
X7.7969Y-3.6634
X7.815Y-3.8602
X7.815Y-4.2602
X7.8445Y-1.7295
X7.8445Y-2.3295
X7.8969Y-2.8366
X7.8969Y-3.1366
X7.8969Y-3.3634
X7.8969Y-3.6634
X7.9445Y-1.7295
X7.9445Y-2.3295
X8.0445Y-1.7295
X8.0445Y-2.3295
T3
X4.0224Y-5.2874
X4.0224Y-5.5433
X4.1996Y-5.2874
X4.1996Y-5.5433
T4
X8.2776Y-4.065
X8.2776Y-4.165
M30
